<svg id="Layer_2" data-name="Layer 2" xmlns="http://www.w3.org/2000/svg" viewBox="0 0 1390.98 1525.17"><defs><style>.cls-1{fill:#302c29;}.cls-2{fill:#8b4512;}.cls-3{fill:#ce8540;}</style></defs><path class="cls-1" d="M319,319.46A93.24,93.24,0,0,1,302.48,332a115.17,115.17,0,0,1-17.86,8.71,90.65,90.65,0,0,1-36.14,6c-22.86-1-44-11.37-61.82-25.23-51.55-40.12-79.19-97-104.55-155.12-6.08-17.7-12-35.45-18.3-53.09-3.15-8.85-2.59-13.95,8.14-17.83C103.46,84.1,103,83.55,115.69,114.83c18.71,46.27,39.33,91.66,71,130.82,43.29,53.59,101.61,43.68,126.24-21.63,19.09-50.63,16-103.23,10.48-155.66-.74-7-3.68-17.91.08-24.51,2.2-3.86,6.61-4.78,10.58-6a100,100,0,0,1,21.23-4.3,15.16,15.16,0,0,1,6.84.64c4.17,1.68,6.33,6.36,7,10.8,1.13,7.69,1.19,15.79,1.56,23.55q.6,12.66.85,25.33.5,25.34-.5,50.66c-.07,1.69-.14,3.38-.22,5.07Q369.63,174.35,367,199c-1.73,15.82-3.5,31-8.4,46.28-1.27,3.92-2.62,7.81-4,11.69C346.45,279.74,336.88,302.46,319,319.46Z"/><path class="cls-1" d="M1009.19,128.9c-.76-21.21-.34-42.56-.23-64,0-6.15.21-12.76,3.87-17.7,6.84-9.25,25.48-10,33.81-2.36,5.11,4.66,5.77,12.31,6.23,19.21,2.17,32.07,6.4,64.26,15.76,95.1,7.76,25.52,18.46,56,41.24,72,19.34,13.56,42.71,12,62.22-.68,14-9,24.64-22.32,33.82-36.19,11.33-17.14,22.33-34.5,31.12-52.91,10-20.88,18.2-42.53,25.84-64.34,2.64-7.53,6.42-14.09,14.32-16.76,4.88-1.65,11.15-1.12,16.33-1.57q8.79-.76,17.57-1.84,3.33-.41,6.65-.86a13.79,13.79,0,0,1,5.16-.05c9.25,2.32,0,18.52-1.94,23.37-3.54,8.87-6.84,17.84-10.31,26.74-7.5,19.27-15.4,38.41-24.17,57.15-22.3,47.64-51.22,97.14-93.61,129.7-22.54,17.3-50.95,28.23-79.56,23-47.78-8.72-76.26-58.2-90.39-100.75C1013.52,186.88,1010.24,158,1009.19,128.9Z"/><path class="cls-1" d="M702.26,507.73c-28.91.4-53.2-18.89-53.77-42.68-.58-24.32,20.42-42.57,49.58-43.1,24.83-.45,44,18.6,44.42,44.08C742.86,489.89,726,507.39,702.26,507.73Z"/><path class="cls-1" d="M733.51,249.29c-34-73.16-63.54-147.42-95.37-221.07-5.82-13.46-42.9-72.77.48-74.67,11.16-.48,22.84-.7,33.7,1.52,13.38,2.73,18.18,7.44,22.36,16.52Q774.39,144.93,854,318.29c2.33,5.07,4.45,11.15-.21,15.34-3.24,2.92-8.76,3.9-13.87,4.71-97,17.25-196.3,29.83-294.5,43.29-5,.68-10.33,1.32-14.9-.21-14.3-4.81-22.87-24.86-26.46-34.73-1.37-3.76-2.29-8.05.71-11.3,3.24-3.52,9.76-4.49,15.6-5.16C562.26,325.42,604,320,645.74,314.65q30.91-3.91,61.88-7.62c14.28-1.68,40-.28,43.37-13.46,1.6-6.21-1.64-12.46-4.73-18.37Q739.53,262.32,733.51,249.29Z"/><path class="cls-1" d="M1080.87,1092.09c-10.11-3-11.63-13.32-11.73-22.12A314.83,314.83,0,0,0,1010,889.52c-37.22-51.5-90.44-92.13-152-115.06C781.38,745.92,694.52,742.13,614.14,757c-89.43,16.57-183.42,61-231.82,136.49-28.15,43.91-40.37,95.08-38.1,146.1,2.32,51.87,20.64,98.86,42.26,146.06,22.58,49.29,49.65,97.76,80.93,142.66,29.84,42.82,55.38,91.51,99.16,123.66,45.52,33.43,105.37,46,161.13,55,28.14,4.53,56.49,7.74,84.89,10.47,24.64,2.37,53,7.52,75.69-5,17.9-9.92,24.12-27.64,31.34-44.75,9-21.36,18.54-42.53,28-63.72,9.74-21.82,22.86-27.25,45.86-34.45,33.66-10.54,62-28.74,88.69-50.33,29-23.49,57-50.2,73.77-83,14.75-28.89,21.49-66.24,7.29-96.5-12-25.52-38.71-45.13-68.81-46.33-4.28-.17-8.65,0-12.79-1Zm-119.58,39.77c-20.42,21.25-46.72,37.85-74.2,49.67-60.75,26.15-132.55,37.28-199,37-85-.37-185.13-19.46-245.63-79.45-48.87-48.45-65.56-117.67-42.28-181.28,25.63-70,96.15-121.25,167.3-147.92,100.8-37.78,223.21-39,317,16.94C966.24,875.52,1025.35,974,999.41,1066a154.8,154.8,0,0,1-29.15,55.71Q966,1127,961.29,1131.86Zm141,100.69c-27.73,27.57-62.89,44.63-98.74,60.58-1.24.55-3.24,1.28-4,.76-2-1.33-.3-3.08.28-4.64q22.67-61.66,45.27-123.36c1.31-3.59,2.84-5.94,7.33-6.75,13.3-2.37,26.59-3.65,40-1.36,19.87,3.38,29.6,14.54,29.76,33.71C1122.32,1208.05,1113.82,1221.13,1102.34,1232.55Z"/><path class="cls-2" d="M958.26,967.6c-15-47.05-44.69-84.08-85.81-114.12A310.4,310.4,0,0,0,739.79,798q-10.12-1.65-20.34-2.59c-97.26-9-204.77,30.77-261.34,107.37-17.23,23.34-29.68,50-35,78a168.67,168.67,0,0,0,14.16,105c21.94,44.79,62.95,76,111.32,93.38,104.15,37.41,209.47,32.39,310.6-9.52a192.68,192.68,0,0,0,82.29-65.81C970.73,1062.67,972.77,1013.19,958.26,967.6Z"/><path class="cls-3" d="M425.55,801.13a114.28,114.28,0,0,1-1-18.48c.3-14.9,2.91-30.23,11.31-42.87,20.66-31.11,63.52-38.19,96.7-51.54,10.05-4,19.76-12.45,19-22.7-.38-4.94-3.16-9.42-6.3-13.39-10.53-13.34-25.48-22.86-39.27-33.24s-27.16-22.61-32.44-38.47c-5.79-17.42-.79-36.55,7.85-52.89,6.82-12.89,16.2-25,29.18-32.67s30-10.22,43.85-4.13c1.07.47,2.22,1.11,2.5,2.19.39,1.56-1.25,2.85-2.66,3.75-19.25,12.19-33.78,30.81-40.37,51.73-2.82,9-4.21,18.6-1.76,27.66,2.79,10.31,10.35,19,19.29,25.53,13.87,10.08,30.73,15,44.16,25.73,11.53,9.25,19.69,21.54,19.68,36.14,0,18.47-14,34.62-30.28,45s-35.14,16.49-52.23,25.62c-22.26,11.9-41,30.72-39,56.3,1.76,22.39,23.35,34.54,44,40.77,16,4.82,32.87,7.12,48.5,13s30.55,16.21,35.77,31.24c4.94,14.2.25,30-8.18,42.68-9.86,14.78-24.53,26.33-40.61,35S519.62,967.8,502,973.33c-6.88,2.16-15.08,4.08-20.86,0-6.53-4.65-5.67-14.66-.63-20.73s12.86-9.34,20.09-13a149.17,149.17,0,0,0,42.55-31.78c4.17-4.5,8.26-10.33,6.3-16-1.86-5.34-8.2-7.86-13.87-9.64C515.82,876,495.49,871,476.79,862.26s-36-21.66-44.79-39.45A71.53,71.53,0,0,1,425.55,801.13Z"/><path class="cls-3" d="M792.5,735c27.93-20.41,61.87-33.83,93.12-49.07,5.54-2.71,11.27-5.56,15-10.24,6.79-8.44,2.73-16.72-6.15-21.28-17.06-8.75-36.15-16-47.61-30.72C822.29,592,842.81,548.4,858,517.41c3.34-6.81,6.26-11.79,14-14.34s16.06-2.72,24.12-2.89c1.86,0,4.06.08,5.08,1.55,3,4.34-7,15.79-9.16,19.53a162.94,162.94,0,0,0-11.4,23.53c-5.13,13.71-9.75,33.06-1.94,46.57,13.52,23.43,46.22,30,61.3,53.18,6.75,10.37,10.23,22.87,8.14,34.87-2.51,14.38-12.7,26.74-24.91,35.72s-26.45,15.11-40.33,21.6c-16,7.48-30.76,16.18-43.52,28.06-8.57,8-11.29,20-6.39,30.47,4,8.68,11.88,15.29,20.07,20.83,13.11,8.86,27.71,15.72,40.34,25.19,17.48,13.09,29.06,31.6,23.94,53-3.14,13.12-11,24.78-19.57,35.53-23,28.82-51.89,53.12-83,74.16-14,9.45-20.94-18.19-16.18-26.52,2.87-5,7.45-9,11.89-12.88,16.19-14.23,31.78-29.4,43.88-47,11.31-16.42,21.51-33.81,3.9-49.45-10.46-9.29-22.47-16.73-34.59-23.92A287.18,287.18,0,0,1,787.45,819c-18.2-15-32.86-46.07-14.88-66.23A127.21,127.21,0,0,1,792.5,735Z"/><path class="cls-3" d="M656.91,723.62c9.65-8.14,19.56-16.09,28.8-24.68,9.73-9.05,21.62-20.57,24.37-33.67,3.86-18.45-18.83-22.5-33.06-26.17-9-2.31-18.31-5.73-23.66-12.88-5.07-6.77-5.61-15.62-5.16-23.88a127.72,127.72,0,0,1,8.6-39.48c6.22-15.91,23.35-10.35,37.64-10.53,2.21,0,4.56,0,6.43,1.09,5.18,3.06-10.26,27.48-11.63,33.41-3,12.78,1,24.48,14,30.56,8.63,4.05,17.39,7.88,26,12,24.64,11.93,30.33,36.53,14,57.87-17.81,23.28-42.58,41.59-61.22,64.42C669,767.66,653.5,796,670,814.3c5.74,6.38,13.87,10.46,22.21,13.37,13.27,4.63,27.4,6.62,41.06,10.11s27.37,8.77,37,18.52c17.11,17.33,9.43,41.82-.47,60.61-23,43.61-59.55,81.1-97.16,114-11.46,10-17.31-2.74-23.35-11.38-2.51-3.59-4.41-8-3.25-12.1.78-2.81,2.85-5.11,4.87-7.31,25.38-27.73,56.53-54.84,72.27-88.82,6.05-13.06,4-20.4-8.1-29.08-16.27-11.72-34.81-20-52.45-29.6-19.72-10.77-48.35-23.87-54.78-46.53-3.38-11.92.69-24.65,6.75-35.6C625,751.69,640.6,737.39,656.91,723.62Z"/></svg>